<svg width="22" height="24" viewBox="0 0 22 24" fill="none" xmlns="http://www.w3.org/2000/svg">
<path d="M10.9985 0.533134C11.8909 0.53328 12.6959 1.06499 13.0483 1.8847L13.1089 2.03899C13.3427 2.71892 13.2317 3.46787 12.8198 4.05071C14.1884 4.45586 15.3981 5.2817 16.2749 6.41497L16.4458 6.64642C17.2756 7.81772 17.7159 9.22274 17.6997 10.663V12.5976L17.7124 13.1318C17.8389 15.7974 18.9561 18.3268 20.8579 20.2177L20.9175 20.287C21.0432 20.4561 21.0739 20.6818 20.9917 20.8808L20.9907 20.8818C20.896 21.1069 20.6763 21.2548 20.4292 21.2538V21.2548H13.9751C13.68 22.6544 12.4456 23.6697 11.0005 23.6699C9.55524 23.6699 8.32116 22.6545 8.02588 21.2548H1.5708V21.2538C1.35474 21.2546 1.15925 21.142 1.05029 20.9628L1.00928 20.8818L1.0083 20.8808C0.914319 20.6534 0.967672 20.3906 1.14209 20.2177H1.14307C3.17127 18.201 4.3072 15.4575 4.30029 12.5976V10.4921C4.30037 8.97954 4.81235 7.51204 5.75342 6.32806L5.93408 6.11028C6.78956 5.1209 7.91567 4.40332 9.17334 4.04681C8.73246 3.41996 8.63996 2.60211 8.94775 1.8847L9.01904 1.73431C9.40119 1.00031 10.1617 0.533134 10.9985 0.533134ZM9.27295 21.2548C9.52683 21.9795 10.2132 22.4782 10.9995 22.4784C11.786 22.4784 12.4731 21.9796 12.7271 21.2548H9.27295ZM11.2642 5.00384C9.85743 4.93645 8.4825 5.41186 7.42041 6.3261L7.2124 6.51458C6.12478 7.55105 5.51025 8.98892 5.51221 10.4921V12.5966L5.50244 13.1298C5.39775 15.6483 4.49245 18.068 2.92236 20.0419H19.0767C17.3963 17.9291 16.4791 15.305 16.4878 12.5966V10.6601L16.4858 10.3915C16.4472 9.14244 15.99 7.94306 15.187 6.98528L15.0103 6.78411C14.0378 5.73124 12.6953 5.09315 11.2642 5.00481V5.00384ZM11.0005 1.75481C10.4377 1.75481 9.98108 2.21058 9.98096 2.77337C9.98096 3.18514 10.2296 3.55686 10.6108 3.71478H10.6099C10.9428 3.85225 11.3202 3.80325 11.605 3.59368L11.7212 3.49407C11.9756 3.23853 12.0732 2.87165 11.9888 2.52923L11.9419 2.38372C11.784 2.00272 11.4121 1.75497 11.0005 1.75481Z" fill="#213F7D" stroke="#213F7D" stroke-width="0.4"/>
</svg>
